# xmcd CD database file
#
# Track frame offsets:
#	150
#	15452
#	30295
#	65813
#	84423
#	101847
#	130052
#	148060
#	164486
#	179447
#	202977
#	217164
#
# Disc length: 3147 seconds
#
# Revision: 0
# Processed by: cddbd v1.4PL0 Copyright (c) Steve Scherf et al.
# Submitted via: CDex 1.40Release
#
DISCID=aa0c490c
DTITLE=The Red Hot Blues - Well Traveled
DYEAR=1996
DGENRE=Blues
TTITLE0=Walkin' Shoes
TTITLE1=If Your Lovin' Gets Delivered
TTITLE2=One Bottle
TTITLE3=Give Me The Butt
TTITLE4=Red Hot Blues
TTITLE5=It's Time You Understand
TTITLE6=Start It Up
TTITLE7=Satisfied
TTITLE8=Choo Choo Ch'Boogie
TTITLE9=Haunted By My Past
TTITLE10=Night Drive
TTITLE11=Everytime I Roll The Dice
EXTD=YEAR: 1996 ID3G: 0
EXTT0=
EXTT1=
EXTT2=
EXTT3=
EXTT4=
EXTT5=
EXTT6=
EXTT7=
EXTT8=
EXTT9=
EXTT10=
EXTT11=
PLAYORDER=
